<svg width="3584" height="288" viewBox="0 0 3584 288" fill="none" xmlns="http://www.w3.org/2000/svg">
<path d="M2673.75 0H2785.91V288H2673.75V184.432H2598.83V288H2486.66V0H2598.83V99.4379H2673.75V0Z" fill="#222222"/>
<path d="M2933.67 0V288H2821.5V0H2933.67Z" fill="#222222"/>
<path d="M2969.24 0H3162.2C3207.81 0 3269.35 21.4596 3269.35 99.0279C3269.35 174.12 3220.37 205.066 3161.78 205.066H3081.42V288H2969.25V0H2969.24ZM3078.49 138.223H3103.18C3129.96 138.223 3157.17 133.272 3157.17 101.093C3157.17 70.558 3129.96 66.8466 3102.75 66.8466H3078.49L3078.49 138.223Z" fill="#222222"/>
<path d="M3283.63 0H3476.57C3522.19 0 3583.72 21.4596 3583.72 99.0279C3583.72 174.12 3534.75 205.066 3476.14 205.066H3395.79V288H3283.63L3283.63 0ZM3392.86 138.223H3417.56C3444.34 138.223 3471.54 133.272 3471.54 101.093C3471.54 70.558 3444.34 66.8466 3417.14 66.8466H3392.86V138.223Z" fill="#222222"/>
<path d="M0 4.79272H26.3274V129.639L146.126 4.79272H180.469L51.512 136.02L191.529 283.21H155.284L26.3274 143.994V283.21H0V4.79272Z" fill="#222222"/>
<path d="M238.828 4.79272H307.495C354.81 4.79272 385.721 25.9288 385.721 76.9883C385.721 112.881 359.394 136.818 326.573 141.209V142.005C347.943 144.794 352.524 156.757 360.921 175.509L406.321 283.21H377.316L338.781 189.076C323.521 153.172 312.079 151.976 286.899 151.976H265.151V283.21H238.828V4.79272ZM265.15 128.039H293.003C323.907 128.039 359.393 115.675 359.393 76.9883C359.393 31.5047 328.482 28.7227 292.237 28.7227H265.151L265.15 128.039Z" fill="#222222"/>
<path d="M458.57 4.79272H589.054V28.7227H484.894V128.04H583.712V151.977H484.894V259.279H593.635V283.211H458.57V4.79272Z" fill="#222222"/>
<path d="M738.986 4.79272H768.743L874.433 283.211H846.96L818.341 208.618H684.044L655.431 283.211H629.865L738.986 4.79272ZM751.954 31.1131L693.962 184.682H809.568L751.954 31.1131Z" fill="#222222"/>
<path d="M944.282 28.7227H865.691V4.79272H1049.21V28.7227H970.619V283.211H944.282V28.7227Z" fill="#222222"/>
<path d="M1097.4 4.79272H1123.72V283.211H1097.4V4.79272Z" fill="#222222"/>
<path d="M1296.82 283.21H1268.59L1169.38 4.79175H1197.23L1283.08 255.684L1371.97 4.79175H1397.93L1296.82 283.21Z" fill="#222222"/>
<path d="M1439.12 4.79272H1502.45C1545.95 4.79272 1586.77 19.9413 1586.77 73.4012C1586.77 108.893 1571.13 130.041 1538.33 136.818V137.616C1571.88 143.995 1594.8 167.141 1594.8 203.836C1594.8 264.462 1547.48 283.211 1492.16 283.211H1439.12V4.79272ZM1465.45 259.278H1492.92C1528.41 259.278 1568.46 249.307 1568.46 205.027C1568.46 155.567 1527.65 150.379 1488.71 150.379H1465.45V259.278ZM1466.2 126.453H1495.58C1523.44 126.453 1560.46 118.871 1560.46 74.5909C1560.46 34.3037 1524.97 28.7227 1502.45 28.7227H1466.2V126.453Z" fill="#222222"/>
<path d="M1825.48 6.02539V185.882C1825.48 231.356 1802.22 264.06 1756.07 264.06C1709.91 264.06 1686.64 231.356 1686.64 185.882V6.02539H1658.67V185.882C1658.67 268.056 1715.16 288 1754.07 288C1792.98 288 1849.46 268.056 1849.46 185.882V6.02539H1825.48Z" fill="#222222"/>
<path d="M1738.58 6.02539H1707.61V38.9896H1738.58V6.02539Z" fill="#222222"/>
<path d="M1738.58 6.02539H1707.61V38.9896H1738.58V6.02539Z" fill="#222222"/>
<path d="M1801.63 6.02539H1770.66V38.9896H1801.63V6.02539Z" fill="#222222"/>
<path d="M1923.53 4.79272H1992.22C2039.53 4.79272 2070.42 25.9288 2070.42 76.9883C2070.42 112.881 2044.1 136.818 2011.29 141.209V142.005C2032.66 144.794 2037.23 156.757 2045.63 175.509L2091.03 283.21H2062.05L2023.49 189.076C2008.23 153.172 1996.79 151.976 1971.61 151.976H1949.87V283.21H1923.53V4.79272ZM1949.87 128.039H1977.73C2008.61 128.039 2044.1 115.675 2044.1 76.9883C2044.1 31.5047 2013.21 28.7227 1976.95 28.7227H1949.87V128.039Z" fill="#222222"/>
<path d="M2241.21 0C2321.34 0 2359.09 68.6114 2358.34 143.994C2357.57 229.364 2317.89 287.999 2241.21 287.999C2164.52 287.999 2124.84 229.364 2124.08 143.994C2123.32 68.6104 2161.07 0 2241.21 0ZM2150.4 143.994C2150.4 203.038 2178.63 264.06 2241.21 264.06C2303.77 264.06 2332.01 203.038 2332.01 143.994C2332.01 84.9646 2303.77 23.93 2241.21 23.93C2178.63 23.93 2150.4 84.9646 2150.4 143.994Z" fill="#222222"/>
</svg>
